<?xml version="1.0"?>
<svg xmlns="http://www.w3.org/2000/svg" xmlns:xlink="http://www.w3.org/1999/xlink" version="1.1" id="Capa_1" x="0px" y="0px" viewBox="0 0 512.025 512.025" style="enable-background:new 0 0 512.025 512.025;" xml:space="preserve" width="512px" height="512px" class=""><g transform="matrix(0.381009 -9.33204e-17 9.33204e-17 0.381009 158.469 158.469)"><g transform="matrix(1.25 0 0 -1.25 0 45)">
	<g>
		<g>
			<g>
				<path style="fill:#333333" d="M113.782-102.439c34.133-56.889,0-121.651-34.133-110.273s-45.511-22.756-11.378-34.133      s107.691,5.291,147.911,45.511c11.378,11.378,22.756,11.378,22.756,11.378L113.782-102.439z" data-original="#553788" class="active-path" data-old_color="#553788"/>
				<path style="fill:#333333" d="M295.827-102.439c-34.133-56.889,0-121.651,34.133-110.273s45.511-22.756,11.378-34.133      s-107.691,5.291-147.911,45.511c-11.378,11.378-22.756,11.378-22.756,11.378L295.827-102.439z" data-original="#553788" class="active-path" data-old_color="#553788"/>
			</g>
			<g>
				<path style="fill:#333333" d="M343.5-147.95c-34.133-56.889,0-121.651,34.133-110.273s45.511-22.756,11.378-34.133      S281.32-287.077,241.1-246.845c-11.378,11.378-22.756,11.378-22.756,11.378L343.5-147.95z" data-original="#744EAA" class="" data-old_color="#343434"/>
				<path style="fill:#333333" d="M66.121-147.95c34.133-56.889,0-121.651-34.133-110.273s-45.511-22.756-11.378-34.133      s107.691,5.279,147.911,45.511c11.378,11.378,22.756,11.378,22.756,11.378L66.121-147.95z" data-original="#744EAA" class="" data-old_color="#343434"/>
			</g>
			<path style="fill:#333333" d="M377.633-322.883c-31.061-10.354-73.102,64.011-54.75,120.354     c18.728,36.898,29.844,78.017,29.844,111.468c0,81.692-66.219,125.156-147.911,125.156c-81.681,0-147.911-43.463-147.911-125.156     c0-33.451,11.127-74.57,29.855-111.468c18.352-56.343-23.689-130.708-54.75-120.354c-34.133,11.378-45.511-34.133-11.378-45.511     s94.549,7.134,136.533,45.511c24.895,22.756,47.65,22.756,47.65,22.756s22.756,0,47.662-22.756     c41.984-38.377,102.4-56.889,136.533-45.511S411.766-311.505,377.633-322.883" data-original="#9266CC" class="" data-old_color="#666666"/>
			<path id="SVGCleanerId_0" style="fill:#FFFFFF" d="M182.049-204.839c0-12.561-10.183-22.756-22.756-22.756     c-12.561,0-22.756,10.194-22.756,22.756c0,12.572,10.194,22.756,22.756,22.756C171.866-182.083,182.049-192.266,182.049-204.839" data-original="#292F33" class="" data-old_color="#ffffff"/>
			<g transform="translate(8)">
				<path id="SVGCleanerId_0_1_" style="fill:#FFFFFF" d="M273.071-204.839c0-12.561-10.183-22.756-22.756-22.756      c-12.561,0-22.756,10.194-22.756,22.756c0,12.572,10.194,22.756,22.756,22.756C262.888-182.083,273.071-192.266,273.071-204.839      " data-original="#292F33" class="" data-old_color="#ffffff"/>
			</g>
		</g>
	</g>
</g></g> </svg>
