<?xml version="1.0"?>
<svg xmlns="http://www.w3.org/2000/svg" xmlns:xlink="http://www.w3.org/1999/xlink" version="1.1" id="Layer_1" x="0px" y="0px" viewBox="0 0 501.551 501.551" style="enable-background:new 0 0 501.551 501.551;" xml:space="preserve" width="512px" height="512px" class=""><g><path style="fill:#263238" d="M480.653,0H20.898C9.404,0,0,9.404,0,20.898v459.755c0,11.494,9.404,20.898,20.898,20.898h459.755  c11.494,0,20.898-9.404,20.898-20.898V20.898C501.551,9.404,492.147,0,480.653,0z" data-original="#CDD6E0" class="" data-old_color="#e6e6e6"/><rect x="36.362" y="80.206" style="fill:#FFFFFF" width="428.408" height="384.522" data-original="#FFFFFF" class=""/><g>
	<circle style="fill:#FFFFFF" cx="438.857" cy="39.706" r="13.584" data-original="#F2F2F2" class="active-path" data-old_color="#ffffff"/>
	<circle style="fill:#FFFFFF" cx="394.971" cy="39.706" r="13.584" data-original="#F2F2F2" class="active-path" data-old_color="#ffffff"/>
	<circle style="fill:#FFFFFF" cx="350.041" cy="39.706" r="13.584" data-original="#F2F2F2" class="active-path" data-old_color="#ffffff"/>
</g><g>
	<rect x="198.531" y="212.114" style="fill:#ED4C5C" width="236.147" height="24.033" data-original="#4CDBC4" class="" data-old_color="#D43343"/>
	<rect x="198.531" y="169.273" style="fill:#ED4C5C" width="236.147" height="24.033" data-original="#4CDBC4" class="" data-old_color="#D43343"/>
</g><g>
	<rect x="329.143" y="415.869" style="fill:#E6E6E6" width="63.739" height="24.033" data-original="#CDD6E0" class="" data-old_color="#e6e6e6"/>
	<rect x="329.143" y="371.984" style="fill:#E6E6E6" width="104.49" height="24.033" data-original="#CDD6E0" class="" data-old_color="#e6e6e6"/>
	<rect x="198.531" y="415.869" style="fill:#E6E6E6" width="63.739" height="24.033" data-original="#CDD6E0" class="" data-old_color="#e6e6e6"/>
	<rect x="198.531" y="371.984" style="fill:#E6E6E6" width="104.49" height="24.033" data-original="#CDD6E0" class="" data-old_color="#e6e6e6"/>
	<rect x="66.873" y="415.869" style="fill:#E6E6E6" width="63.739" height="24.033" data-original="#CDD6E0" class="" data-old_color="#e6e6e6"/>
	<rect x="66.873" y="371.984" style="fill:#E6E6E6" width="104.49" height="24.033" data-original="#CDD6E0" class="" data-old_color="#e6e6e6"/>
</g><rect x="66.873" y="266.449" style="fill:#81D4FA" width="104.49" height="75.233" data-original="#FFD15C" class="" data-old_color="#81d4fa"/><rect x="198.531" y="266.449" style="fill:#4FC3F7" width="104.49" height="75.233" data-original="#FF7058" class="" data-old_color="#4fc3f7"/><rect x="329.143" y="266.449" style="fill:#03A9F4" width="104.49" height="75.233" data-original="#ACB3BA" class="" data-old_color="#03a9f4"/><rect x="67.803" y="108.575" style="fill:#FF6676" width="104.49" height="127.478" data-original="#F1543F" class="" data-old_color="#ED4C5C"/><path style="fill:#FFFFFF" d="M154.645,174.498l7.314-4.18l-2.09-8.359l-8.359-1.045c-1.045-2.09-2.09-4.18-3.135-6.269l4.18-7.314  l-6.269-6.269l-7.314,4.18c-2.09-1.045-4.18-2.09-6.269-3.135l-2.09-10.449l-9.404-1.045l-3.135,7.314c-2.09,0-5.224,0-7.314,1.045  l-6.269-6.269l-8.359,4.18l1.045,8.359c-1.045,1.045-2.09,1.045-3.135,2.09l0,0c-1.045,1.045-2.09,2.09-2.09,3.135l-8.359-1.045  l-4.18,8.359l6.269,6.269c-1.045,2.09-1.045,5.224-1.045,7.314l-7.314,4.18l1.045,9.404l8.359,1.045  c1.045,2.09,2.09,4.18,3.135,6.269l-4.18,7.314l6.269,6.269l7.314-4.18c2.09,1.045,4.18,2.09,6.269,3.135l1.045,8.359l9.404,1.045  l3.135-7.314c2.09,0,5.224,0,7.314-1.045l6.269,6.269l8.359-4.18l0-8.359c1.045-1.045,2.09-1.045,3.135-2.09l0,0  c1.045-1.045,2.09-2.09,2.09-3.135l8.359,1.045l4.18-8.359l-6.269-6.269C153.6,179.722,154.645,176.588,154.645,174.498z   M119.118,192.261c-10.449,0-19.853-8.359-19.853-19.853c0-5.224,2.09-10.449,6.269-13.584c3.135-3.135,8.359-6.269,13.584-6.269  c10.449,0,19.853,8.359,19.853,19.853c0,5.224-2.09,10.449-6.269,13.584C129.567,190.171,125.388,192.261,119.118,192.261z" data-original="#FFFFFF" class=""/></g> </svg>
